Coordinates
version=1
nRows=34
nColumns=38
inDegrees=no

Units are S.I. units (second, meters, Newtons, ...)
If the header above contains a line with 'inDegrees', this indicates whether rotational values are in degrees (yes) or radians (no).

endheader
time	pelvis_tilt	pelvis_list	pelvis_rotation	pelvis_tx	pelvis_ty	pelvis_tz	hip_flexion_r	hip_adduction_r	hip_rotation_r	knee_angle_r	ankle_angle_r	subtalar_angle_r	mtp_angle_r	hip_flexion_l	hip_adduction_l	hip_rotation_l	knee_angle_l	ankle_angle_l	subtalar_angle_l	mtp_angle_l	lumbar_extension	lumbar_bending	lumbar_rotation	arm_flex_r	arm_add_r	arm_rot_r	elbow_flex_r	pro_sup_r	wrist_flex_r	wrist_dev_r	arm_flex_l	arm_add_l	arm_rot_l	elbow_flex_l	pro_sup_l	wrist_flex_l	wrist_dev_l
1.63	1.48639	1.51638	-2.9403	0.826152	0.752759	0.956776	0.111092	-0.192904	-0.0046405	0.904337	-0.0462129	0	0	0.0391733	0.0887532	-0.151313	0.266779	0.139372	0	0	-0.070279	-0.065914	0.310288	0.244904	0.0649542	0.362556	1.07237	1.5708	0	0	-0.280264	-0.283663	0.495651	0.562517	0.620491	0	0
1.64	1.30883	1.51719	-2.70946	0.835342	0.751767	0.957919	0.103265	-0.204402	-0.0570414	0.927606	-0.0722105	0	0	0.0275624	0.0974477	-0.0810598	0.267028	0.135523	0	0	-0.0892787	-0.0522728	0.259754	0.249486	0.0529554	0.358468	1.0835	1.5708	0	0	-0.264765	-0.274987	0.492889	0.556862	0.615373	0	0
1.65	1.47427	1.5165	-2.91361	0.830302	0.74645	0.956699	0.151925	-0.189881	0.00700323	0.977693	-0.089266	0	0	0.0238385	0.0932529	-0.136083	0.25396	0.140892	0	0	-0.0765876	-0.065556	0.300297	0.24931	0.064256	0.346933	1.07629	1.5708	0	0	-0.26487	-0.289304	0.478661	0.571449	0.602479	0	0
1.66	1.4563	1.5173	-2.88687	0.832375	0.74339	0.9568	0.170482	-0.185586	0.0129856	1.01142	-0.111005	0	0	0.0167751	0.0938207	-0.128435	0.249636	0.142113	0	0	-0.0800176	-0.0641192	0.29465	0.252983	0.063035	0.339925	1.07612	1.5708	0	0	-0.257263	-0.291722	0.472028	0.575695	0.59598	0	0
1.67	1.42947	1.51832	-2.84981	0.834512	0.740431	0.957019	0.187382	-0.180279	0.0178976	1.04304	-0.129437	0	0	0.0092522	0.0939198	-0.118342	0.244951	0.142882	0	0	-0.0839826	-0.0620708	0.287809	0.257416	0.0616547	0.332534	1.07475	1.5708	0	0	-0.249949	-0.293047	0.463459	0.579544	0.587487	0	0
1.68	1.40052	1.51959	-2.80992	0.836629	0.737545	0.957282	0.203977	-0.173884	0.0227954	1.07387	-0.139846	0	0	0.00196472	0.0933937	-0.10803	0.240589	0.143693	0	0	-0.0878575	-0.0594962	0.280707	0.26225	0.0598922	0.324921	1.07294	1.5708	0	0	-0.24277	-0.294391	0.456961	0.583534	0.580536	0	0
1.69	1.37573	1.52099	-2.77355	0.838711	0.734733	0.957559	0.220999	-0.166934	0.0273353	1.10463	-0.140608	0	0	-0.00479045	0.092593	-0.0976142	0.236215	0.144164	0	0	-0.0913195	-0.0566692	0.273267	0.26768	0.0576326	0.317578	1.07071	1.5708	0	0	-0.235644	-0.295454	0.450412	0.587123	0.575803	0	0
1.7	1.35478	1.52249	-2.74039	0.840795	0.731964	0.957855	0.238176	-0.159677	0.0312053	1.13419	-0.134056	0	0	-0.0113829	0.0916653	-0.0869487	0.231211	0.144108	0	0	-0.0943228	-0.0536675	0.265807	0.273234	0.0547851	0.310343	1.06842	1.5708	0	0	-0.228166	-0.295768	0.443587	0.589166	0.573366	0	0
1.71	1.33576	1.52425	-2.70854	0.842893	0.72924	0.95815	0.255424	-0.15214	0.0341816	1.1619	-0.122953	0	0	-0.0176713	0.0903318	-0.0761047	0.226102	0.144017	0	0	-0.0968499	-0.0505389	0.258935	0.278398	0.0513685	0.301477	1.06642	1.5708	0	0	-0.220599	-0.296376	0.438812	0.591925	0.572865	0	0
1.72	1.32304	1.52633	-2.68266	0.844973	0.726564	0.958399	0.273411	-0.144372	0.0366494	1.18813	-0.109483	0	0	-0.0232931	0.0885794	-0.0656532	0.221238	0.144378	0	0	-0.0986531	-0.0472681	0.252919	0.28304	0.0475747	0.291079	1.06444	1.5708	0	0	-0.212664	-0.297029	0.435507	0.594414	0.573837	0	0
1.73	1.31058	1.52842	-2.65687	0.846988	0.723902	0.958617	0.291697	-0.13647	0.0390339	1.21277	-0.0955549	0	0	-0.0286524	0.08643	-0.0561445	0.216744	0.145064	0	0	-0.10024	-0.0438274	0.247016	0.287698	0.0436798	0.280301	1.06213	1.5708	0	0	-0.204876	-0.297133	0.431172	0.596283	0.576452	0	0
1.74	1.29355	1.53019	-2.62622	0.849013	0.721262	0.95884	0.309801	-0.128974	0.0412698	1.23559	-0.0819965	0	0	-0.0340449	0.0842027	-0.0466136	0.212749	0.145983	0	0	-0.101978	-0.0404222	0.240906	0.292713	0.0393738	0.269677	1.05935	1.5708	0	0	-0.197582	-0.296678	0.425756	0.598141	0.582232	0	0
1.75	1.27544	1.53172	-2.59421	0.851067	0.71869	0.959058	0.32825	-0.121923	0.0435926	1.25683	-0.0699667	0	0	-0.0392651	0.082119	-0.0365827	0.208966	0.146823	0	0	-0.103772	-0.0371575	0.234508	0.298277	0.034707	0.259525	1.05559	1.5708	0	0	-0.190881	-0.295661	0.418679	0.600476	0.589982	0	0
1.76	1.26235	1.53352	-2.56763	0.852872	0.716254	0.959206	0.348309	-0.11436	0.0468143	1.27705	-0.0598126	0	0	-0.0430358	0.0795572	-0.0272176	0.206622	0.148042	0	0	-0.10548	-0.0340402	0.228639	0.305033	0.029897	0.250103	1.05049	1.5708	0	0	-0.184139	-0.294542	0.410329	0.603164	0.59647	0	0
1.77	1.24318	1.53559	-2.53494	0.854602	0.713905	0.959356	0.368598	-0.106387	0.0503809	1.29511	-0.0516339	0	0	-0.0460966	0.0765559	-0.0178402	0.205151	0.149361	0	0	-0.107372	-0.0305587	0.222873	0.312048	0.025101	0.23996	1.04525	1.5708	0	0	-0.177553	-0.293351	0.403584	0.605529	0.605283	0	0
1.78	1.21281	1.53693	-2.49184	0.856146	0.711552	0.959524	0.388618	-0.0985054	0.0552138	1.31134	-0.0448119	0	0	-0.0500802	0.073858	-0.00848436	0.203082	0.150218	0	0	-0.110158	-0.0277564	0.217637	0.319555	0.0207659	0.229391	1.03985	1.5708	0	0	-0.17165	-0.29274	0.398373	0.609298	0.615045	0	0
1.79	0.8247	1.53009	-2.03552	0.865289	0.713389	0.961574	0.375707	-0.122457	-0.00277408	1.31081	-0.0387168	0	0	-0.0604224	0.0720828	0.0743757	0.213096	0.146315	0	0	-0.135349	-0.00585716	0.157483	0.334675	0.00293774	0.227137	1.04147	1.5708	0	0	-0.155899	-0.276701	0.389568	0.600375	0.63226	0	0
1.8	0.977636	1.53998	-2.22744	0.860533	0.707222	0.960075	0.425407	-0.0957663	0.0640399	1.33308	-0.0235674	0	0	-0.0610827	0.0671824	0.0222357	0.200651	0.150352	0	0	-0.118659	-0.0147549	0.202371	0.335526	0.00973573	0.214258	1.02883	1.5708	0	0	-0.161231	-0.286629	0.383896	0.61396	0.638283	0	0
1.81	0.678328	1.5289	-1.86092	0.868279	0.70891	0.96216	0.410562	-0.109035	0.00517418	1.33131	-0.0240565	0	0	-0.0703219	0.062967	0.0959873	0.211619	0.149939	0	0	-0.143743	0.0029297	0.144897	0.350827	-0.00709014	0.209511	1.02974	1.5708	0	0	-0.145116	-0.272709	0.37638	0.606267	0.658531	0	0
1.82	0.776089	1.54064	-1.9989	0.863448	0.70235	0.960521	0.460866	-0.0805501	0.0727261	1.34983	-0.00704607	0	0	-0.0706736	0.058221	0.0426326	0.198895	0.154308	0	0	-0.125454	-0.0062688	0.19038	0.350626	0.000779318	0.1947	1.01686	1.5708	0	0	-0.152354	-0.282347	0.37046	0.619573	0.66538	0	0
1.83	0.707661	1.54044	-1.92151	0.864779	0.699964	0.960642	0.479914	-0.0720218	0.0822157	1.35621	0.00264183	0	0	-0.0753339	0.0546683	0.0456356	0.197989	0.156881	0	0	-0.12817	-0.00323058	0.188474	0.357521	-0.00287127	0.183383	1.01127	1.5708	0	0	-0.150049	-0.281378	0.367044	0.627081	0.674187	0	0
1.84	0.61452	1.54025	-1.81543	0.866146	0.697441	0.960746	0.497617	-0.0657413	0.0863185	1.36021	0.0130324	0	0	-0.0790929	0.0500468	0.0541664	0.198108	0.159427	0	0	-0.131121	0.00103145	0.182066	0.36536	-0.00749632	0.17728	1.00508	1.5708	0	0	-0.148145	-0.279423	0.360213	0.632998	0.689187	0	0
1.85	0.529386	1.54006	-1.71777	0.867322	0.694945	0.960829	0.515396	-0.0603506	0.0902945	1.36239	0.0227034	0	0	-0.0825651	0.0454362	0.0629282	0.197974	0.1615	0	0	-0.133624	0.00509283	0.17593	0.373668	-0.0129301	0.174144	0.998529	1.5708	0	0	-0.146547	-0.277099	0.352892	0.638135	0.703555	0	0
1.86	0.440456	1.54	-1.6166	0.868375	0.692384	0.960897	0.533407	-0.0549809	0.0947366	1.36282	0.029339	0	0	-0.0855696	0.0402825	0.071117	0.198157	0.164053	0	0	-0.135479	0.00915384	0.170035	0.382112	-0.0173929	0.164354	0.989848	1.5708	0	0	-0.145661	-0.274818	0.345212	0.643916	0.716881	0	0
1.87	0.341562	1.5397	-1.5059	0.869353	0.68962	0.960946	0.550931	-0.0493508	0.0996637	1.36137	0.0352481	0	0	-0.088277	0.0346776	0.078904	0.19878	0.16706	0	0	-0.137043	0.0134737	0.164895	0.389981	-0.0216557	0.150954	0.980878	1.5708	0	0	-0.144834	-0.27298	0.340379	0.649764	0.72488	0	0
1.88	0.240984	1.53949	-1.39337	0.870313	0.686846	0.960985	0.567985	-0.0444414	0.104276	1.35752	0.0409786	0	0	-0.0901602	0.0289162	0.0863985	0.199904	0.169985	0	0	-0.137963	0.0179766	0.15945	0.398019	-0.0268239	0.142026	0.971278	1.5708	0	0	-0.144532	-0.270818	0.335167	0.65444	0.734879	0	0
1.89	0.136608	1.53875	-1.27704	0.871234	0.683994	0.961034	0.583835	-0.0403281	0.108496	1.35113	0.0442204	0	0	-0.0922046	0.0227866	0.0943626	0.200994	0.17296	0	0	-0.138965	0.0227566	0.153818	0.406065	-0.0327055	0.13565	0.961356	1.5708	0	0	-0.144897	-0.2687	0.329374	0.659617	0.745209	0	0
1.9	0.0422244	1.53738	-1.17039	0.872169	0.681084	0.961111	0.59852	-0.037715	0.111812	1.34257	0.0454621	0	0	-0.0948054	0.0165667	0.103167	0.201557	0.175862	0	0	-0.140222	0.0276408	0.147627	0.414298	-0.0390586	0.130055	0.950817	1.5708	0	0	-0.14568	-0.266406	0.323575	0.664862	0.755259	0	0
1.91	-0.0450667	1.53584	-1.07126	0.873106	0.67813	0.961182	0.61234	-0.0357103	0.115484	1.33196	0.046861	0	0	-0.0976696	0.0103918	0.111877	0.20131	0.177823	0	0	-0.141206	0.032525	0.142201	0.42219	-0.0454501	0.122062	0.940522	1.5708	0	0	-0.146355	-0.264094	0.319588	0.669568	0.764776	0	0
1.92	-0.145327	1.53463	-0.960051	0.873937	0.675094	0.961177	0.625755	-0.0323929	0.121194	1.31915	0.0487182	0	0	-0.0995889	0.00389013	0.119816	0.200833	0.179544	0	0	-0.140949	0.0376077	0.138053	0.429492	-0.0530025	0.115952	0.930357	1.5708	0	0	-0.146925	-0.261577	0.31695	0.673534	0.774645	0	0
1.93	-0.289179	1.53143	-0.802499	0.87309	0.670891	0.96132	0.638695	-0.00736712	0.114649	1.32208	0.170644	0	0	-0.100145	-0.0132629	0.116096	0.200103	0.187937	0	0	-0.140427	0.0419796	0.133502	0.43582	-0.0594286	0.10893	0.919579	1.5708	0	0	-0.146808	-0.261996	0.313114	0.677313	0.788012	0	0
1.94	-0.365725	1.52969	-0.714722	0.873926	0.667605	0.96119	0.650181	-0.00671157	0.119942	1.30643	0.174549	0	0	-0.101536	-0.0198502	0.124437	0.200299	0.190654	0	0	-0.139394	0.0469514	0.128726	0.441852	-0.0671939	0.103893	0.910829	1.5708	0	0	-0.148223	-0.259005	0.30865	0.680117	0.802395	0	0
1.95	-0.433058	1.52717	-0.636277	0.874818	0.664155	0.961093	0.659147	-0.00645154	0.12546	1.28736	0.173934	0	0	-0.103396	-0.0268609	0.132595	0.200767	0.193615	0	0	-0.138407	0.0523889	0.12446	0.446659	-0.0754427	0.097735	0.903575	1.5708	0	0	-0.149546	-0.256347	0.30684	0.682257	0.811273	0	0
1.96	-0.800594	1.51843	-0.274175	0.873745	0.662605	0.96144	0.692914	0.00431571	0.120447	1.26739	0.159023	0	0	-0.0871016	-0.0448198	0.124862	0.209901	0.196847	0	0	-0.132257	0.0715202	0.140174	0.454291	-0.0913381	0.0909922	0.897487	1.5708	0	0	-0.139713	-0.242297	0.306434	0.667832	0.814874	0	0
